<?xml version="1.0" encoding="UTF-8" standalone="no"?>
<!DOCTYPE svg PUBLIC "-//W3C//DTD SVG 1.1//EN" "http://www.w3.org/Graphics/SVG/1.1/DTD/svg11.dtd">
<svg version="1.1" xmlns="http://www.w3.org/2000/svg" xmlns:xlink="http://www.w3.org/1999/xlink" preserveAspectRatio="xMidYMid meet" viewBox="0 0 100 98" width="100" height="98"><defs><path d="M0 50C0 72.09 14.32 90.83 34.2 97.45C36.69 97.91 37.5 96.36 37.5 95.04C37.5 94.11 37.5 86.66 37.5 85.73C23.59 88.76 20.7 79.83 20.7 79.83C18.42 74.05 15.14 72.52 15.14 72.52C10.6 69.41 15.49 69.48 15.49 69.48C20.51 69.83 23.15 74.63 23.15 74.63C27.61 82.27 34.85 80.07 37.7 78.79C38.15 75.56 39.44 73.35 40.87 72.1C29.77 70.83 18.1 66.55 18.1 47.39C18.1 41.93 20.05 37.47 23.25 33.97C22.73 32.71 21.02 27.62 23.73 20.74C23.73 20.74 27.93 19.4 37.49 25.86C41.47 24.75 45.75 24.2 50 24.18C54.25 24.2 58.53 24.75 62.52 25.86C72.07 19.4 76.26 20.74 76.26 20.74C78.98 27.62 77.27 32.71 76.75 33.97C79.96 37.47 81.9 41.93 81.9 47.39C81.9 66.6 70.2 70.82 59.07 72.06C60.86 73.61 62.5 76.65 62.5 81.32C62.5 82.69 62.5 93.67 62.5 95.04C62.5 96.37 63.3 97.93 65.84 97.44C85.69 90.82 100 72.08 100 50C100 22.39 77.61 0 50 0C22.39 0 0 22.39 0 50Z" id="a2GHy272Fz"></path></defs><g><g><g><use xlink:href="#a2GHy272Fz" opacity="1" fill="#ffffff" fill-opacity="1"></use><g><use xlink:href="#a2GHy272Fz" opacity="1" fill-opacity="0" stroke="#000000" stroke-width="1" stroke-opacity="0"></use></g></g></g></g></svg>