<svg width="21" height="21" viewBox="0 0 21 21" fill="none" xmlns="http://www.w3.org/2000/svg">
<g clip-path="url(#clip0)">
<path d="M10.5 0.699951C4.97833 0.699951 0.5 5.17745 0.5 10.6999C0.5 15.1183 3.365 18.8666 7.33917 20.1891C7.83833 20.2816 8 19.9716 8 19.7083V17.8466C5.21833 18.4516 4.63917 16.6666 4.63917 16.6666C4.18417 15.5108 3.52833 15.2033 3.52833 15.2033C2.62083 14.5824 3.5975 14.5958 3.5975 14.5958C4.60167 14.6658 5.13 15.6266 5.13 15.6266C6.02167 17.1549 7.46917 16.7133 8.04 16.4574C8.12917 15.8116 8.38833 15.3699 8.675 15.1208C6.45417 14.8666 4.11917 14.0091 4.11917 10.1783C4.11917 9.08578 4.51 8.19412 5.14917 7.49412C5.04583 7.24162 4.70333 6.22412 5.24667 4.84745C5.24667 4.84745 6.08667 4.57912 7.9975 5.87245C8.795 5.65078 9.65 5.53995 10.5 5.53578C11.35 5.53995 12.2058 5.65078 13.005 5.87245C14.9142 4.57912 15.7525 4.84745 15.7525 4.84745C16.2967 6.22495 15.9542 7.24245 15.8508 7.49412C16.4925 8.19412 16.88 9.08662 16.88 10.1783C16.88 14.0191 14.5408 14.8649 12.3142 15.1124C12.6725 15.4224 13 16.0308 13 16.9641V19.7083C13 19.9741 13.16 20.2866 13.6675 20.1883C17.6383 18.8641 20.5 15.1166 20.5 10.6999C20.5 5.17745 16.0225 0.699951 10.5 0.699951Z" fill="white"/>
</g>
<defs>
<clipPath id="clip0">
<rect x="0.5" y="0.699951" width="20" height="20" fill="white"/>
</clipPath>
</defs>
</svg>
