<svg width="164" height="31" viewBox="0 0 164 31" fill="none" xmlns="http://www.w3.org/2000/svg">
<path d="M5.92285 2.15137C6.17676 1.64355 6.45996 1.30176 6.77246 1.12598C7.09473 0.950195 7.40723 0.862305 7.70996 0.862305C7.87598 0.862305 8.03223 0.881836 8.17871 0.920898C8.33496 0.950195 8.47168 1.00879 8.58887 1.09668C8.70605 1.1748 8.79883 1.28711 8.86719 1.43359C8.93555 1.57031 8.96973 1.74121 8.96973 1.94629C8.96973 2.2002 8.91602 2.49316 8.80859 2.8252C8.70117 3.15723 8.52539 3.55762 8.28125 4.02637C7.30469 5.75488 6.48438 7.57617 5.82031 9.49023C5.15625 11.4043 4.62402 13.3184 4.22363 15.2324C4.18457 15.4766 4.16016 15.7109 4.15039 15.9355C4.14062 16.1602 4.13574 16.375 4.13574 16.5801C4.13574 17.1562 4.20898 17.6445 4.35547 18.0449C4.50195 18.4453 4.69238 18.7676 4.92676 19.0117C5.1709 19.2559 5.43945 19.4316 5.73242 19.5391C6.02539 19.6465 6.31836 19.7002 6.61133 19.7002C7.71484 19.7002 8.77441 19.3047 9.79004 18.5137C10.8057 17.7227 11.709 16.6045 12.5 15.1592C13.3008 13.7041 13.9502 11.9609 14.4482 9.92969C14.9561 7.88867 15.249 5.61816 15.3271 3.11816C15.3369 2.85449 15.3857 2.625 15.4736 2.42969C15.5615 2.22461 15.6738 2.05859 15.8105 1.93164C15.9473 1.80469 16.1035 1.71191 16.2793 1.65332C16.4648 1.58496 16.6504 1.55078 16.8359 1.55078C17.0703 1.55078 17.2607 1.63867 17.4072 1.81445C17.5635 1.98047 17.6855 2.20508 17.7734 2.48828C17.8613 2.77148 17.9199 3.10352 17.9492 3.48438C17.9883 3.85547 18.0078 4.24609 18.0078 4.65625C18.0078 6.38477 17.8467 8.02539 17.5244 9.57812C17.2119 11.1211 16.7773 12.5518 16.2207 13.8701C15.6641 15.1787 15.0049 16.3604 14.2432 17.415C13.4912 18.46 12.6709 19.3535 11.7822 20.0957C10.8936 20.8281 9.96094 21.3945 8.98438 21.7949C8.01758 22.1855 7.0459 22.3809 6.06934 22.3809C5.46387 22.3809 4.85352 22.2539 4.23828 22C3.63281 21.7461 3.08594 21.375 2.59766 20.8867C2.10938 20.3984 1.71387 19.8027 1.41113 19.0996C1.1084 18.3965 0.957031 17.5957 0.957031 16.6973C0.957031 16.5312 0.961914 16.3604 0.97168 16.1846C0.981445 15.999 1.00098 15.8135 1.03027 15.6279C1.15723 14.876 1.29395 14.1631 1.44043 13.4893C1.59668 12.8057 1.77246 12.1367 1.96777 11.4824C2.16309 10.8184 2.38281 10.1494 2.62695 9.47559C2.87109 8.80176 3.14941 8.09375 3.46191 7.35156C3.78418 6.59961 4.14551 5.79883 4.5459 4.94922C4.95605 4.09961 5.41504 3.16699 5.92285 2.15137ZM26.6797 1.96094C26.2793 2.53711 25.8936 3.08887 25.5225 3.61621C25.1611 4.13379 24.7949 4.65137 24.4238 5.16895C24.0625 5.67676 23.6963 6.19434 23.3252 6.72168C22.9541 7.24902 22.5732 7.7959 22.1826 8.3623C22.0264 8.58691 21.8652 8.74805 21.6992 8.8457C21.5332 8.94336 21.3721 8.99219 21.2158 8.99219C21.0596 8.99219 20.9326 8.95312 20.835 8.875C20.7373 8.79688 20.6885 8.69434 20.6885 8.56738C20.6885 8.50879 20.7031 8.44043 20.7324 8.3623C20.9473 7.7959 21.1475 7.24902 21.333 6.72168C21.5283 6.19434 21.7188 5.67676 21.9043 5.16895C22.0898 4.65137 22.2754 4.13379 22.4609 3.61621C22.6562 3.08887 22.8613 2.53711 23.0762 1.96094C23.1445 1.75586 23.2568 1.58008 23.4131 1.43359C23.5693 1.27734 23.75 1.15527 23.9551 1.06738C24.1602 0.969727 24.3799 0.896484 24.6143 0.847656C24.8486 0.798828 25.0781 0.774414 25.3027 0.774414C25.5078 0.774414 25.6982 0.793945 25.874 0.833008C26.0596 0.862305 26.2207 0.911133 26.3574 0.979492C26.4941 1.04785 26.6016 1.13086 26.6797 1.22852C26.7676 1.32617 26.8115 1.43848 26.8115 1.56543C26.8115 1.68262 26.7676 1.81445 26.6797 1.96094ZM29.7266 13.7529C30.3223 14.0654 30.8545 14.4219 31.3232 14.8223C31.792 15.2227 32.1875 15.6475 32.5098 16.0967C32.8418 16.5361 33.0908 16.9854 33.2568 17.4443C33.4326 17.9033 33.5205 18.3525 33.5205 18.792C33.5205 19.3486 33.3594 19.8516 33.0371 20.3008C32.7246 20.7402 32.3096 21.1162 31.792 21.4287C31.2842 21.7314 30.6982 21.9609 30.0342 22.1172C29.3799 22.2832 28.7158 22.3662 28.042 22.3662C27.5342 22.3662 27.041 22.3076 26.5625 22.1904C26.084 22.083 25.6445 21.9121 25.2441 21.6777C24.8535 21.4434 24.5166 21.1455 24.2334 20.7842C23.9502 20.4131 23.75 19.9736 23.6328 19.4658C23.6133 19.3877 23.6035 19.3242 23.6035 19.2754C23.6035 19.0117 23.6963 18.7871 23.8818 18.6016C24.0674 18.4062 24.2725 18.3086 24.4971 18.3086C24.6045 18.3086 24.7217 18.3281 24.8486 18.3672C24.9854 18.4062 25.0879 18.4941 25.1562 18.6309C25.2832 18.8652 25.459 19.0752 25.6836 19.2607C25.918 19.4463 26.1768 19.6074 26.46 19.7441C26.7432 19.8711 27.041 19.9736 27.3535 20.0518C27.6758 20.1201 27.9883 20.1543 28.291 20.1543C28.6035 20.1543 28.9014 20.125 29.1846 20.0664C29.4775 20.0078 29.7314 19.915 29.9463 19.7881C30.1709 19.6611 30.3467 19.5 30.4736 19.3047C30.6006 19.1094 30.6641 18.8701 30.6641 18.5869C30.6641 18.0889 30.5518 17.6299 30.3271 17.21C30.1025 16.79 29.8096 16.4043 29.4482 16.0527C29.0967 15.6914 28.6914 15.3594 28.2324 15.0566C27.7832 14.7441 27.334 14.4463 26.8848 14.1631C26.8359 14.1338 26.7627 14.0508 26.665 13.9141C26.5674 13.7676 26.5186 13.6211 26.5186 13.4746C26.5186 13.3574 26.5479 13.2646 26.6064 13.1963C26.7627 12.9912 26.9434 12.7812 27.1484 12.5664C27.3535 12.3516 27.5732 12.1562 27.8076 11.9805C28.042 11.7949 28.2959 11.6484 28.5693 11.541C28.8428 11.4238 29.126 11.3652 29.4189 11.3652C29.6338 11.3652 29.834 11.3945 30.0195 11.4531C30.2051 11.5117 30.3613 11.5898 30.4883 11.6875C30.6152 11.7754 30.7129 11.8779 30.7812 11.9951C30.8594 12.1025 30.8984 12.2051 30.8984 12.3027C30.8984 12.4395 30.8643 12.5713 30.7959 12.6982C30.7275 12.8252 30.6348 12.9473 30.5176 13.0645C30.4102 13.1816 30.2832 13.2988 30.1367 13.416C30 13.5332 29.8633 13.6455 29.7266 13.7529ZM53.5742 8.80176C53.4082 9.10449 53.1885 9.50488 52.915 10.0029C52.6514 10.501 52.3438 11.0576 51.9922 11.6729C51.6504 12.2881 51.2744 12.9521 50.8643 13.665C50.4639 14.3682 50.0439 15.0762 49.6045 15.7891C49.1748 16.502 48.7305 17.2051 48.2715 17.8984C47.8223 18.582 47.3828 19.2168 46.9531 19.8027C48.0078 19.6953 49.0234 19.4268 50 18.9971C50.9766 18.5674 51.8896 18.0352 52.7393 17.4004C53.5986 16.7559 54.3799 16.0381 55.083 15.2471C55.7959 14.4463 56.4014 13.6211 56.8994 12.7715C57.4072 11.9121 57.7979 11.0527 58.0713 10.1934C58.3545 9.33398 58.4961 8.52344 58.4961 7.76172C58.4961 7.11719 58.4131 6.52148 58.2471 5.97461C58.0908 5.42773 57.8467 4.9541 57.5146 4.55371C57.1924 4.15332 56.7773 3.84082 56.2695 3.61621C55.7617 3.3916 55.166 3.2793 54.4824 3.2793C53.8477 3.2793 53.208 3.34277 52.5635 3.46973C51.9287 3.58691 51.3184 3.74805 50.7324 3.95312C50.1465 4.1582 49.6045 4.40234 49.1064 4.68555C48.6182 4.95898 48.1982 5.25684 47.8467 5.5791C47.4561 6.00879 47.1094 6.43848 46.8066 6.86816C46.5137 7.29785 46.2207 7.68359 45.9277 8.02539C45.6445 8.36719 45.3369 8.64551 45.0049 8.86035C44.6729 9.0752 44.2822 9.18262 43.833 9.18262C42.9932 9.18262 42.5732 8.81152 42.5732 8.06934C42.5732 7.60059 42.7246 7.09766 43.0273 6.56055C43.3301 6.01367 43.75 5.47656 44.2871 4.94922C44.834 4.41211 45.4785 3.89941 46.2207 3.41113C46.9727 2.91309 47.7979 2.47852 48.6963 2.10742C49.5947 1.72656 50.5518 1.42383 51.5674 1.19922C52.583 0.974609 53.6279 0.862305 54.7021 0.862305C55.9521 0.862305 57.041 1.04785 57.9688 1.41895C58.8965 1.79004 59.6631 2.30273 60.2686 2.95703C60.8838 3.60156 61.3379 4.36328 61.6309 5.24219C61.9336 6.12109 62.085 7.06836 62.085 8.08398C62.085 9.09961 61.9092 10.1641 61.5576 11.2773C61.2158 12.3906 60.708 13.4844 60.0342 14.5586C59.3701 15.6328 58.5449 16.6533 57.5586 17.6201C56.582 18.5869 55.4541 19.4365 54.1748 20.1689C52.9053 20.9014 51.4941 21.4824 49.9414 21.9121C48.3984 22.3418 46.7285 22.5566 44.9316 22.5566C44.541 22.5566 44.2334 22.4297 44.0088 22.1758C43.7842 21.9316 43.6719 21.6289 43.6719 21.2676C43.6719 20.9844 43.7207 20.7109 43.8184 20.4473C43.916 20.1836 44.043 19.9395 44.1992 19.7148L50.2197 7.74707C50.5029 7.30762 50.7812 6.95605 51.0547 6.69238C51.3379 6.42871 51.5967 6.22363 51.8311 6.07715C52.0752 5.93066 52.29 5.83789 52.4756 5.79883C52.6611 5.75 52.8027 5.72559 52.9004 5.72559C53.3398 5.72559 53.6523 5.85254 53.8379 6.10645C54.0234 6.36035 54.1162 6.66309 54.1162 7.01465C54.1162 7.29785 54.0674 7.5957 53.9697 7.9082C53.8721 8.2207 53.7402 8.51855 53.5742 8.80176ZM71.0469 13.3574C70.998 13.3477 70.9541 13.3428 70.915 13.3428C70.876 13.3428 70.832 13.3428 70.7832 13.3428C70.4121 13.3428 70.0654 13.416 69.7432 13.5625C69.4209 13.709 69.123 13.9043 68.8496 14.1484C68.5859 14.3828 68.3467 14.6514 68.1318 14.9541C67.9268 15.2568 67.7412 15.5596 67.5752 15.8623C67.4092 16.1553 67.2676 16.4385 67.1504 16.7119C67.043 16.9854 66.96 17.2148 66.9014 17.4004C67.2432 17.2246 67.5947 17.0244 67.9561 16.7998C68.3271 16.5752 68.6738 16.3604 68.9961 16.1553C69.3184 15.9502 69.5967 15.7646 69.8311 15.5986C70.0752 15.4326 70.2461 15.3203 70.3438 15.2617C70.7832 14.9883 71.0859 14.7344 71.252 14.5C71.418 14.2559 71.501 14.0459 71.501 13.8701C71.501 13.7236 71.4521 13.6064 71.3545 13.5186C71.2666 13.4307 71.1641 13.377 71.0469 13.3574ZM71.5742 11.3359C72.3848 11.3359 72.9902 11.5312 73.3906 11.9219C73.791 12.3125 73.9912 12.8545 73.9912 13.5479C73.9912 13.958 73.8838 14.3877 73.6689 14.8369C73.4541 15.2861 73.083 15.7451 72.5557 16.2139C72.0283 16.6729 71.3203 17.1465 70.4316 17.6348C69.5527 18.1133 68.4492 18.5967 67.1211 19.085C67.1699 19.3682 67.3213 19.5928 67.5752 19.7588C67.8291 19.915 68.166 19.9932 68.5859 19.9932C69.0352 19.9932 69.5137 19.9297 70.0215 19.8027C70.5391 19.666 71.0469 19.4951 71.5449 19.29C72.0527 19.085 72.5459 18.8652 73.0244 18.6309C73.5029 18.3867 73.9326 18.1572 74.3135 17.9424C74.7041 17.7275 75.0264 17.542 75.2803 17.3857C75.5439 17.2295 75.7197 17.1318 75.8076 17.0928C75.8955 17.0342 75.9736 17 76.042 16.9902C76.1201 16.9805 76.1885 16.9756 76.2471 16.9756C76.3643 16.9756 76.4619 17.0049 76.54 17.0635C76.6182 17.1123 76.6816 17.1758 76.7305 17.2539C76.7891 17.3223 76.8281 17.4004 76.8477 17.4883C76.8672 17.5664 76.877 17.6348 76.877 17.6934C76.877 17.7812 76.8672 17.8887 76.8477 18.0156C76.8281 18.1328 76.7549 18.2695 76.6279 18.4258C76.5791 18.4746 76.4131 18.6064 76.1299 18.8213C75.8564 19.0361 75.5 19.29 75.0605 19.583C74.6211 19.876 74.1084 20.1885 73.5225 20.5205C72.9463 20.8428 72.3311 21.1406 71.6768 21.4141C71.0322 21.6875 70.3584 21.9121 69.6553 22.0879C68.9521 22.2734 68.2588 22.3662 67.5752 22.3662C66.9893 22.3662 66.4668 22.2539 66.0078 22.0293C65.5586 21.8047 65.1729 21.502 64.8506 21.1211C64.5381 20.7402 64.2988 20.3008 64.1328 19.8027C63.9668 19.3047 63.8838 18.7822 63.8838 18.2354C63.8838 17.8154 63.9668 17.3564 64.1328 16.8584C64.2988 16.3506 64.5381 15.8428 64.8506 15.335C65.1631 14.8271 65.5439 14.334 65.9932 13.8555C66.4521 13.3672 66.9648 12.9375 67.5312 12.5664C68.0977 12.1953 68.7178 11.8975 69.3916 11.6729C70.0752 11.4482 70.8027 11.3359 71.5742 11.3359ZM90.9805 18.7188C90.248 19.2754 89.5156 19.7148 88.7832 20.0371C88.0508 20.3496 87.2402 20.5059 86.3516 20.5059C86.0586 20.5059 85.7754 20.4521 85.502 20.3447C85.2285 20.2373 84.8721 20.0469 84.4326 19.7734C83.7881 20.623 83.1387 21.2676 82.4844 21.707C81.8398 22.1465 81.166 22.3662 80.4629 22.3662C80.1211 22.3662 79.7939 22.3027 79.4814 22.1758C79.1689 22.0586 78.8955 21.8779 78.6611 21.6338C78.4268 21.3896 78.2363 21.0869 78.0898 20.7256C77.9531 20.3643 77.8848 19.9443 77.8848 19.4658C77.8848 18.8799 77.9482 18.25 78.0752 17.5762C78.2119 16.8926 78.373 16.2285 78.5586 15.584C78.7441 14.9395 78.9248 14.3438 79.1006 13.7969C79.2861 13.25 79.4326 12.8154 79.54 12.4932C79.7354 12.083 79.9795 11.79 80.2725 11.6143C80.5752 11.4287 80.8682 11.3359 81.1514 11.3359C81.2783 11.3359 81.4053 11.3604 81.5322 11.4092C81.6689 11.4482 81.791 11.5068 81.8984 11.585C82.0059 11.6631 82.0938 11.7559 82.1621 11.8633C82.2305 11.9707 82.2646 12.0879 82.2646 12.2148C82.2646 12.3223 82.2451 12.415 82.2061 12.4932C82.0596 12.9619 81.8838 13.4746 81.6787 14.0312C81.4834 14.5781 81.2979 15.1299 81.1221 15.6865C80.9463 16.2432 80.7949 16.79 80.668 17.3271C80.5508 17.8545 80.4922 18.3379 80.4922 18.7773C80.4922 18.8457 80.502 18.9385 80.5215 19.0557C80.541 19.1631 80.5654 19.2705 80.5947 19.3779C80.624 19.4756 80.6631 19.5635 80.7119 19.6416C80.7607 19.71 80.8145 19.7441 80.873 19.7441C81.127 19.7441 81.4102 19.6025 81.7227 19.3193C82.0352 19.0361 82.377 18.6455 82.748 18.1475C83.0703 17.8057 83.373 17.4053 83.6562 16.9463C83.9492 16.4775 84.2227 15.999 84.4766 15.5107C84.7402 15.0225 84.9893 14.5439 85.2236 14.0752C85.4678 13.5967 85.7021 13.1719 85.9268 12.8008C86.1611 12.4199 86.3906 12.1172 86.6152 11.8926C86.8398 11.6582 87.0693 11.541 87.3037 11.541C87.7041 11.541 87.9873 11.6729 88.1533 11.9365C88.3193 12.1904 88.4023 12.498 88.4023 12.8594C88.4023 13.2695 88.334 13.6455 88.1973 13.9873C88.0703 14.3291 87.8945 14.6855 87.6699 15.0566C87.4453 15.418 87.1768 15.8232 86.8643 16.2725C86.5615 16.7119 86.2295 17.2393 85.8682 17.8545C86.0244 18.0596 86.2686 18.1621 86.6006 18.1621C86.9521 18.1621 87.3135 18.1182 87.6846 18.0303C88.0654 17.9424 88.4414 17.8203 88.8125 17.6641C89.1836 17.498 89.5498 17.3027 89.9111 17.0781C90.2822 16.8438 90.6387 16.5898 90.9805 16.3164C91.127 16.2285 91.2637 16.1846 91.3906 16.1846C91.5664 16.1846 91.708 16.2627 91.8154 16.4189C91.9326 16.5752 91.9912 16.7754 91.9912 17.0195C91.9912 17.2832 91.9131 17.5713 91.7568 17.8838C91.6006 18.1865 91.3418 18.4648 90.9805 18.7188ZM111.324 8.46484C112.193 8.11328 112.955 7.75195 113.609 7.38086C114.264 7.00977 114.811 6.64355 115.25 6.28223C115.689 5.91113 116.021 5.55469 116.246 5.21289C116.471 4.87109 116.583 4.55859 116.583 4.27539C116.583 4.17773 116.534 4.06543 116.437 3.93848C116.339 3.81152 116.188 3.69434 115.982 3.58691C115.787 3.47949 115.538 3.3916 115.235 3.32324C114.933 3.24512 114.581 3.20605 114.181 3.20605C113.106 3.20605 112.11 3.33789 111.192 3.60156C110.274 3.85547 109.439 4.16797 108.688 4.53906C107.936 4.91016 107.271 5.30078 106.695 5.71094C106.119 6.11133 105.636 6.46289 105.245 6.76562C105.001 6.95117 104.786 7.13672 104.601 7.32227C104.425 7.49805 104.249 7.65918 104.073 7.80566C103.907 7.94238 103.727 8.05469 103.531 8.14258C103.336 8.23047 103.102 8.27441 102.828 8.27441C102.418 8.27441 102.096 8.17676 101.861 7.98145C101.637 7.78613 101.524 7.5127 101.524 7.16113C101.524 6.74121 101.69 6.29688 102.022 5.82812C102.354 5.34961 102.813 4.87598 103.399 4.40723C103.985 3.93848 104.674 3.49414 105.465 3.07422C106.256 2.64453 107.105 2.26855 108.014 1.94629C108.932 1.62402 109.884 1.36523 110.87 1.16992C111.866 0.974609 112.862 0.876953 113.858 0.876953C114.884 0.876953 115.768 0.959961 116.51 1.12598C117.252 1.29199 117.857 1.52148 118.326 1.81445C118.805 2.10742 119.156 2.4541 119.381 2.85449C119.615 3.25488 119.732 3.68945 119.732 4.1582C119.732 4.62695 119.576 5.11523 119.264 5.62305C118.951 6.13086 118.502 6.63867 117.916 7.14648C117.34 7.6543 116.632 8.14258 115.792 8.61133C114.962 9.07031 114.024 9.49023 112.979 9.87109C114.015 10.2129 114.854 10.5742 115.499 10.9551C116.153 11.3262 116.661 11.7168 117.022 12.127C117.394 12.5273 117.643 12.9473 117.77 13.3867C117.896 13.8164 117.96 14.2607 117.96 14.7197C117.96 15.3936 117.774 16.0576 117.403 16.7119C117.032 17.3662 116.515 17.9863 115.851 18.5723C115.196 19.1484 114.415 19.6855 113.507 20.1836C112.608 20.6719 111.627 21.0967 110.562 21.458C109.498 21.8096 108.375 22.083 107.193 22.2783C106.012 22.4834 104.815 22.5859 103.604 22.5859C103.175 22.5859 102.74 22.5615 102.301 22.5127C101.861 22.4639 101.456 22.376 101.085 22.249C100.724 22.1221 100.426 21.9512 100.191 21.7363C99.9668 21.5215 99.8545 21.2432 99.8545 20.9014C99.8545 20.8623 99.8545 20.8281 99.8545 20.7988C99.8643 20.7598 99.874 20.7158 99.8838 20.667C99.9229 20.5889 99.9668 20.4961 100.016 20.3887C100.064 20.2715 100.177 20.1592 100.353 20.0518C100.528 19.9443 100.802 19.8564 101.173 19.7881C101.554 19.71 102.096 19.6709 102.799 19.6709C104.02 17.4346 105.025 15.5107 105.816 13.8994C106.617 12.2783 107.286 10.9453 107.823 9.90039C108.36 8.85547 108.81 8.08398 109.171 7.58594C109.542 7.08789 109.903 6.83887 110.255 6.83887C110.411 6.83887 110.562 6.86328 110.709 6.91211C110.855 6.96094 110.982 7.0293 111.09 7.11719C111.207 7.19531 111.3 7.29785 111.368 7.4248C111.437 7.54199 111.471 7.67383 111.471 7.82031C111.393 7.91797 111.349 8.02051 111.339 8.12793C111.329 8.22559 111.324 8.33789 111.324 8.46484ZM110.519 11.2627C110.079 12.2588 109.664 13.1523 109.273 13.9434C108.893 14.7344 108.531 15.4619 108.189 16.126C107.848 16.7803 107.521 17.3955 107.208 17.9717C106.905 18.5381 106.607 19.0947 106.314 19.6416C107.447 19.5439 108.502 19.3486 109.479 19.0557C110.465 18.7529 111.319 18.3818 112.042 17.9424C112.774 17.5029 113.346 17.0098 113.756 16.4629C114.176 15.916 114.386 15.3398 114.386 14.7344C114.386 14.4609 114.322 14.1729 114.195 13.8701C114.078 13.5674 113.873 13.2646 113.58 12.9619C113.287 12.6592 112.892 12.3613 112.394 12.0684C111.896 11.7754 111.271 11.5068 110.519 11.2627ZM124.476 17.7666C124.368 17.9912 124.261 18.2549 124.153 18.5576C124.056 18.8506 124.007 19.1143 124.007 19.3486C124.007 19.4951 124.036 19.6123 124.095 19.7002C124.153 19.7881 124.266 19.832 124.432 19.832C124.637 19.832 124.891 19.7734 125.193 19.6562C125.506 19.5293 125.838 19.3682 126.189 19.1729C126.551 18.9678 126.922 18.7383 127.303 18.4844C127.693 18.2207 128.079 17.9521 128.46 17.6787C128.841 17.3955 129.202 17.1172 129.544 16.8438C129.896 16.5605 130.208 16.3018 130.481 16.0674C130.56 15.999 130.652 15.9502 130.76 15.9209C130.867 15.8916 130.96 15.877 131.038 15.877C131.233 15.877 131.395 15.9453 131.521 16.082C131.648 16.2188 131.712 16.3994 131.712 16.624C131.712 16.8291 131.644 17.0586 131.507 17.3125C131.37 17.5664 131.131 17.8154 130.789 18.0596C130.164 18.6357 129.534 19.1826 128.899 19.7002C128.265 20.2178 127.63 20.6768 126.995 21.0771C126.37 21.4678 125.745 21.7803 125.12 22.0146C124.505 22.249 123.904 22.3662 123.318 22.3662C122.918 22.3662 122.581 22.3125 122.308 22.2051C122.044 22.0977 121.829 21.9512 121.663 21.7656C121.507 21.5801 121.395 21.3604 121.326 21.1064C121.258 20.8525 121.224 20.584 121.224 20.3008C121.224 19.8223 121.292 19.334 121.429 18.8359C121.575 18.3281 121.746 17.8643 121.941 17.4443C122.283 16.6826 122.63 15.9258 122.981 15.1738C123.333 14.4219 123.655 13.7334 123.948 13.1084L128.387 3.66016C128.562 3.2793 128.797 3.01074 129.09 2.85449C129.393 2.69824 129.695 2.62012 129.998 2.62012C130.301 2.62012 130.574 2.70313 130.818 2.86914C131.072 3.03516 131.199 3.30371 131.199 3.6748C131.199 3.85059 131.155 4.03613 131.067 4.23145C130.989 4.42676 130.887 4.63672 130.76 4.86133C130.516 5.32031 130.223 5.88184 129.881 6.5459C129.549 7.20996 129.188 7.93262 128.797 8.71387C128.416 9.49512 128.021 10.3105 127.61 11.1602C127.21 12 126.814 12.8203 126.424 13.6211C126.043 14.4219 125.682 15.1836 125.34 15.9062C125.008 16.6191 124.72 17.2393 124.476 17.7666ZM138.359 13.9287C137.9 13.9287 137.456 14.0459 137.026 14.2803C136.606 14.5049 136.23 14.8076 135.898 15.1885C135.576 15.5596 135.317 15.9844 135.122 16.4629C134.927 16.9316 134.829 17.415 134.829 17.9131C134.829 18.0986 134.844 18.3037 134.873 18.5283C134.902 18.7432 134.961 18.9482 135.049 19.1436C135.146 19.3291 135.283 19.4854 135.459 19.6123C135.635 19.7393 135.869 19.8027 136.162 19.8027C136.611 19.8027 137.046 19.6855 137.466 19.4512C137.896 19.207 138.276 18.8945 138.608 18.5137C138.94 18.123 139.204 17.6836 139.399 17.1953C139.595 16.707 139.692 16.2139 139.692 15.7158C139.692 15.5205 139.678 15.3203 139.648 15.1152C139.629 14.9004 139.57 14.7051 139.473 14.5293C139.385 14.3535 139.253 14.2119 139.077 14.1045C138.901 13.9873 138.662 13.9287 138.359 13.9287ZM139.121 11.3506C139.492 11.3506 139.888 11.3994 140.308 11.4971C140.737 11.5947 141.133 11.7607 141.494 11.9951C141.855 12.2295 142.153 12.542 142.388 12.9326C142.632 13.3135 142.754 13.7871 142.754 14.3535C142.754 14.6465 142.715 14.9834 142.637 15.3643C142.559 15.7354 142.441 16.126 142.285 16.5361C142.383 16.6533 142.495 16.7363 142.622 16.7852C142.749 16.834 142.886 16.8584 143.032 16.8584C143.237 16.8584 143.462 16.7998 143.706 16.6826C143.96 16.5654 144.219 16.4141 144.482 16.2285C144.746 16.043 145.01 15.833 145.273 15.5986C145.537 15.3643 145.786 15.1299 146.021 14.8955C146.255 14.6611 146.465 14.4414 146.65 14.2363C146.846 14.0215 147.007 13.8408 147.134 13.6943C147.202 13.626 147.285 13.5918 147.383 13.5918C147.52 13.5918 147.642 13.665 147.749 13.8115C147.856 13.9482 147.91 14.1436 147.91 14.3975C147.91 14.6514 147.832 14.9443 147.676 15.2764C147.529 15.6084 147.251 15.9551 146.841 16.3164C146.606 16.5703 146.338 16.8633 146.035 17.1953C145.732 17.5273 145.41 17.8398 145.068 18.1328C144.727 18.4258 144.37 18.6748 143.999 18.8799C143.628 19.085 143.257 19.1875 142.886 19.1875C142.632 19.1875 142.383 19.1484 142.139 19.0703C141.904 18.9922 141.665 18.8652 141.421 18.6895C141.069 19.2363 140.669 19.7344 140.22 20.1836C139.771 20.6328 139.268 21.0186 138.711 21.3408C138.164 21.6631 137.568 21.9121 136.924 22.0879C136.289 22.2734 135.61 22.3662 134.888 22.3662C134.614 22.3662 134.297 22.3125 133.936 22.2051C133.574 22.0977 133.228 21.9219 132.896 21.6777C132.573 21.4238 132.3 21.0967 132.075 20.6963C131.851 20.2959 131.738 19.8076 131.738 19.2314C131.738 18.8408 131.802 18.3721 131.929 17.8252C132.056 17.2783 132.246 16.7168 132.5 16.1406C132.764 15.5547 133.091 14.9785 133.481 14.4121C133.882 13.8359 134.355 13.3232 134.902 12.874C135.449 12.415 136.074 12.0488 136.777 11.7754C137.48 11.4922 138.262 11.3506 139.121 11.3506ZM154.968 11.3506C155.397 11.3506 155.773 11.4043 156.096 11.5117C156.418 11.6191 156.691 11.7363 156.916 11.8633C157.17 12.0195 157.395 12.1904 157.59 12.376C157.727 12.2881 157.873 12.2051 158.029 12.127C158.166 12.0586 158.317 12 158.483 11.9512C158.649 11.8926 158.815 11.8633 158.981 11.8633C159.411 11.8633 159.743 11.9512 159.978 12.127C160.212 12.3027 160.329 12.5127 160.329 12.7568C160.329 12.8838 160.295 13.0107 160.227 13.1377L156.799 19.627L157.077 19.3779C158.229 18.7041 159.177 18.1768 159.919 17.7959C160.661 17.4053 161.252 17.1172 161.691 16.9316C162.131 16.7461 162.443 16.6338 162.629 16.5947C162.824 16.5459 162.946 16.5215 162.995 16.5215C163.22 16.5215 163.391 16.6094 163.508 16.7852C163.635 16.9512 163.698 17.1611 163.698 17.415C163.698 17.6982 163.615 17.9863 163.449 18.2793C163.293 18.5723 163.049 18.7822 162.717 18.9092C162.277 19.1338 161.765 19.3779 161.179 19.6416C160.593 19.8955 159.982 20.1787 159.348 20.4912C158.713 20.8037 158.073 21.1553 157.429 21.5459C156.794 21.9268 156.198 22.3516 155.642 22.8203L152.8 27.9619C152.565 28.5186 152.351 28.9727 152.155 29.3242C151.97 29.6758 151.784 29.9541 151.599 30.1592C151.413 30.3643 151.223 30.5059 151.027 30.584C150.832 30.6621 150.607 30.7012 150.354 30.7012C149.973 30.7012 149.67 30.5693 149.445 30.3057C149.23 30.042 149.123 29.7246 149.123 29.3535C149.123 28.9629 149.216 28.5088 149.401 27.9912C149.587 27.4736 149.846 26.9121 150.178 26.3066C150.52 25.7109 150.93 25.0811 151.408 24.417C151.887 23.7627 152.419 23.0938 153.005 22.4102L154.821 20.0957C154.45 20.4375 154.084 20.7305 153.723 20.9746C153.361 21.2188 153.015 21.4189 152.683 21.5752C152.351 21.7217 152.038 21.8291 151.745 21.8975C151.462 21.9658 151.213 22 150.998 22C150.607 22 150.246 21.9121 149.914 21.7363C149.582 21.5508 149.294 21.2969 149.05 20.9746C148.815 20.6523 148.63 20.2715 148.493 19.832C148.356 19.3926 148.288 18.9141 148.288 18.3965C148.288 17.3223 148.493 16.3506 148.903 15.4814C149.323 14.6123 149.855 13.875 150.5 13.2695C151.154 12.6543 151.872 12.1807 152.653 11.8486C153.444 11.5166 154.216 11.3506 154.968 11.3506ZM154.411 13.9287C153.952 13.9287 153.508 14.0459 153.078 14.2803C152.648 14.5049 152.268 14.8076 151.936 15.1885C151.604 15.5596 151.34 15.9893 151.145 16.4775C150.949 16.9658 150.852 17.4688 150.852 17.9863C150.852 18.1426 150.861 18.3135 150.881 18.499C150.91 18.6748 150.964 18.8408 151.042 18.9971C151.13 19.1533 151.252 19.2852 151.408 19.3926C151.574 19.4902 151.799 19.5391 152.082 19.5391C152.287 19.5391 152.526 19.4512 152.8 19.2754C153.083 19.0898 153.371 18.8604 153.664 18.5869C153.967 18.3037 154.26 17.9961 154.543 17.6641C154.826 17.3223 155.08 16.9902 155.305 16.668C155.539 16.3457 155.725 16.0576 155.861 15.8037C155.998 15.54 156.066 15.3447 156.066 15.2178C156.066 15.0029 156.008 14.8174 155.891 14.6611C155.773 14.4951 155.627 14.3584 155.451 14.251C155.285 14.1436 155.104 14.0654 154.909 14.0166C154.724 13.958 154.558 13.9287 154.411 13.9287Z" fill="white"/>
</svg>
