<svg width="15" height="15" viewBox="0 0 15 15" fill="none" xmlns="http://www.w3.org/2000/svg">
<path fill-rule="evenodd" clip-rule="evenodd" d="M7.4925 0C3.3525 0 0 3.36 0 7.5C0 11.64 3.3525 15 7.4925 15C11.64 15 15 11.64 15 7.5C15 3.36 11.64 0 7.4925 0ZM7.50001 13.5C4.18501 13.5 1.50001 10.815 1.50001 7.49996C1.50001 4.18496 4.18501 1.49996 7.50001 1.49996C10.815 1.49996 13.5 4.18496 13.5 7.49996C13.5 10.815 10.815 13.5 7.50001 13.5ZM6.75 3.75H7.875V7.6875L11.25 9.69L10.6875 10.6125L6.75 8.25V3.75Z" fill="white"/>
</svg>
