<svg width="15" height="16" viewBox="0 0 15 16" fill="none" xmlns="http://www.w3.org/2000/svg">
<path fill-rule="evenodd" clip-rule="evenodd" d="M7.4925 0.897827C3.3525 0.897827 0 4.25783 0 8.39783C0 12.5378 3.3525 15.8978 7.4925 15.8978C11.64 15.8978 15 12.5378 15 8.39783C15 4.25783 11.64 0.897827 7.4925 0.897827ZM7.50001 14.3978C4.18501 14.3978 1.50001 11.7128 1.50001 8.39779C1.50001 5.08279 4.18501 2.39779 7.50001 2.39779C10.815 2.39779 13.5 5.08279 13.5 8.39779C13.5 11.7128 10.815 14.3978 7.50001 14.3978ZM6.75 4.64783H7.875V8.58533L11.25 10.5878L10.6875 11.5103L6.75 9.14783V4.64783Z" fill="#2A3743"/>
</svg>
