<?xml version="1.0" encoding="UTF-8" standalone="no"?>
<!DOCTYPE svg PUBLIC "-//W3C//DTD SVG 1.1//EN" "http://www.w3.org/Graphics/SVG/1.1/DTD/svg11.dtd">
<svg version="1.1" xmlns="http://www.w3.org/2000/svg" xmlns:xlink="http://www.w3.org/1999/xlink" preserveAspectRatio="xMidYMid meet" viewBox="0 0 100 82" width="100" height="82"><defs><path d="M88.22 13.33C92.45 10.8 95.71 6.78 97.24 1.98C93.28 4.33 88.88 6.04 84.21 6.96C80.47 2.98 75.13 0.48 69.23 0.48C55.99 0.48 46.25 12.84 49.25 25.67C32.2 24.82 17.08 16.65 6.96 4.24C1.59 13.46 4.17 25.52 13.31 31.63C9.95 31.52 6.78 30.6 4.02 29.06C3.8 38.57 10.61 47.46 20.47 49.44C17.59 50.22 14.42 50.4 11.21 49.79C13.82 57.94 21.39 63.87 30.37 64.03C21.75 70.8 10.88 73.82 0 72.53C9.08 78.35 19.87 81.75 31.45 81.75C69.54 81.75 91.06 49.58 89.76 20.73C93.77 17.83 97.25 14.22 100 10.1C96.32 11.74 92.37 12.84 88.22 13.33Z" id="e1jlV9zMg3"></path></defs><g><g><g><use xlink:href="#e1jlV9zMg3" opacity="1" fill="#ffffff" fill-opacity="1"></use><g><use xlink:href="#e1jlV9zMg3" opacity="1" fill-opacity="0" stroke="#000000" stroke-width="1" stroke-opacity="0"></use></g></g></g></g></svg>