<svg width="21" height="21" viewBox="0 0 21 21" fill="none" xmlns="http://www.w3.org/2000/svg">
<g clip-path="url(#clip0)">
<path d="M20.5 4.49747C19.7642 4.82414 18.9733 5.04414 18.1433 5.1433C18.9908 4.6358 19.6417 3.83164 19.9475 2.8733C19.155 3.3433 18.2767 3.68497 17.3417 3.86914C16.5942 3.07164 15.5267 2.5733 14.3467 2.5733C11.6975 2.5733 9.75083 5.04497 10.3492 7.6108C6.94 7.43997 3.91667 5.80664 1.8925 3.32414C0.8175 5.1683 1.335 7.5808 3.16167 8.80247C2.49 8.7808 1.85667 8.59664 1.30417 8.28914C1.25917 10.19 2.62167 11.9683 4.595 12.3641C4.0175 12.5208 3.385 12.5575 2.74167 12.4341C3.26333 14.0641 4.77833 15.25 6.575 15.2833C4.85 16.6358 2.67667 17.24 0.5 16.9833C2.31583 18.1475 4.47333 18.8266 6.79 18.8266C14.4083 18.8266 18.7125 12.3925 18.4525 6.62164C19.2542 6.04247 19.95 5.31997 20.5 4.49747Z" fill="white"/>
</g>
<defs>
<clipPath id="clip0">
<rect x="0.5" y="0.699951" width="20" height="20" fill="white"/>
</clipPath>
</defs>
</svg>
